<?xml version="1.0" encoding="utf-8"?>
<!-- Generator: Adobe Illustrator 19.0.0, SVG Export Plug-In . SVG Version: 6.00 Build 0)  -->
<svg version="1.1" xmlns="http://www.w3.org/2000/svg" xmlns:xlink="http://www.w3.org/1999/xlink" x="0px" y="0px"
	 viewBox="-49 141 512 512" style="enable-background:new -49 141 512 512;" xml:space="preserve">
<style type="text/css">
	.st0{fill:#6AFF00;}
	.st1{fill:#F5EB22;}
	.st2{fill:#231F20;}
</style>
<g id="start">
	<g>
		<g>
			<path class="st0" d="M106.3,213.1c20.9-22.8,50.1-34.4,87.7-34.8V141h26.7v36.7c37.2,2.6,65.8,13.6,85.7,32.9
				c19.9,19.3,30.4,44.8,31.3,76.5h-49.1c-1.3-14.2-5.2-26.5-11.5-36.7c-11.8-18.9-30.6-28.8-56.4-29.7v136.6
				c43.4,12.1,72.8,23.6,88.4,34.2c25.2,17.6,37.9,43.6,37.9,78c0,49.7-16.1,85.1-48.5,106c-17.9,11.6-43.9,19.3-77.7,23V653H194
				v-54.5c-54.4-3.5-91.4-22.8-110.8-57.8c-10.7-18.9-16-44.4-16-76.6h49.6c1.5,25.6,5.6,44.3,12.1,56.1c11.7,21.1,33.3,33,65,35.6
				V403c-40.6-7.7-70.6-20.5-89.9-38.5c-19.4-18-29.1-42.8-29.1-74.6C75,261.6,85.4,235.9,106.3,213.1z M144,330.1
				c12.4,10.5,29,17.8,49.9,21.9V220.1c-24.7,0.9-42.3,8.4-52.8,22.5c-10.5,14-15.7,28.7-15.7,44.1
				C125.5,305.1,131.7,319.6,144,330.1z M286.8,522.3c6.3-11.2,9.5-24.2,9.5-39c0-23.4-8.6-41.2-25.8-53.3
				c-9.9-7.1-26.6-13.9-49.9-20.2v147.6C252.6,555.8,274.7,544.2,286.8,522.3z"/>
		</g>
	</g>
</g>
<g id="end">
	<circle class="st1" cx="182.5" cy="379.5" r="138.5"/>
	<circle class="st2" cx="130" cy="339" r="29"/>
	<circle class="st2" cx="241" cy="339" r="29"/>
	<path class="st2" d="M228,106"/>
	<path class="st2" d="M270,439c0,14.9-37.8,47-84.5,47S101,453.9,101,439s37.8,8.4,84.5,8.4S270,424.1,270,439z"/>
</g>
</svg>
