<?xml version="1.0" encoding="utf-8"?>
<!-- Generator: Adobe Illustrator 19.0.0, SVG Export Plug-In . SVG Version: 6.00 Build 0)  -->
<svg version="1.1" id="Layer_1" xmlns="http://www.w3.org/2000/svg" xmlns:xlink="http://www.w3.org/1999/xlink" x="0px" y="0px"
	 viewBox="1911 -28 4433 849" style="enable-background:new 1911 -28 4433 849;" xml:space="preserve">
<style type="text/css">
	.st0{fill:#0247FE;}
	.st1{fill:#0391CE;}
	.st2{fill:#66B032;}
	.st3{fill:#D0EA2B;}
	.st4{fill:#FEFE33;}
	.st5{fill:#FABC02;}
	.st6{fill:#FB9902;}
	.st7{fill:#FD5308;}
	.st8{fill:#3D01A4;}
	.st9{fill:#8601AF;}
	.st10{fill:#FE2712;}
	.st11{fill:#A7194B;}
	.st12{fill:#FFFFFF;}
</style>
<g transform="translate(0.000000,849.000000) scale(0.100000,-0.100000)">
	<path d="M22480,8000c-611-54-1198-276-1652-623c-687-527-1098-1296-1219-2282c-21-168-24-234-24-570c0-400,8-508,56-790
		c96-554,320-1100,593-1449c35-45,76-92,91-106s64-70,108-125c284-350,537-553,892-712c332-148,672-228,1129-264
		c219-17,669-7,866,20c594,81,1130,326,1521,695c292,277,515,606,644,954c54,145,55,153,55,519v342l-36,61c-46,78-153,185-235,233
		c-35,21-100,49-144,63c-68,22-98,26-205,27c-176,0-310-41-406-125c-38-33-177-237-195-287c-61-160-206-478-260-568
		c-219-369-523-589-939-680c-116-25-142-27-365-27c-213-1-253,2-355,22c-714,144-1145,697-1262,1617c-26,207-36,689-19,902
		c55,670,242,1153,581,1493c241,242,489,368,840,426c152,24,450,15,605-20c346-77,597-247,842-571c54-71,138-208,271-440
		c112-196,238-337,346-390c185-90,467-85,632,11c110,63,214,174,273,291l31,62v275v274l-36,104c-169,485-571,934-1119,1245
		c-365,208-659,307-1105,374C23128,8004,22652,8015,22480,8000z"/>
	<path d="M31891,8000c-270-57-449-244-515-539c-9-41-21-131-26-200c-12-162-12-5275-1-5438c5-67,17-157,27-200
		c58-261,221-452,449-525c95-31,325-33,425-4c240,69,412,261,476,531c18,78,19,163,19,2915s-1,2837-19,2915c-64,269-229,456-464,527
		C32186,8005,31965,8015,31891,8000z"/>
	<path d="M53055,8002.2c-133-32-230-80-315-160c-111-102-194-260-223-422c-9-49-19-102-23-119c-4-16-10-948-14-2070
		c-6-2024-6-2041-27-2155c-76-408-235-640-500-731c-75-26-108-31-230-36c-264-11-418,44-557,199c-110,123-166,268-280,723
		c-79,317-138,450-252,574c-109,117-249,171-449,171c-220,0-388-63-520-196c-142-141-196-296-196-555c0-458,161-972,429-1371
		c281-418,710-661,1325-751c134-19,192-22,482-21c325,1,333,1,515,33c712,125,1225,482,1504,1050c121,246,195,492,230,761
		s37,435,34,2445l-4,1980l-21,80c-80,295-240,476-493,554C53374,8014.2,53148,8024.2,53055,8002.2z"/>
	<path d="M57390,7973c-125-6-396-44-555-79c-899-195-1480-703-1646-1440c-34-149-34-150-33-404c1-247,2-259,32-396
		c77-347,235-620,505-868c231-212,521-371,957-524c227-80,413-133,850-242c693-173,893-240,1075-363c235-159,335-337,335-597
		c0-210-63-361-215-515c-156-158-370-267-630-321c-150-32-473-44-631-25c-234,29-421,101-573,221c-175,138-284,306-450,689
		c-39,90-92,199-118,243c-52,87-145,196-207,244c-116,89-265,131-426,121c-184-12-314-70-440-196c-160-161-215-332-190-596
		c27-295,148-596,357-885c360-501,866-808,1540-934c283-53,381-61,783-60c354,0,386,2,575,28c758,106,1361,421,1723,900
		c115,152,175,252,237,395c127,292,171,539,162,901c-11,440-111,749-341,1055c-168,224-392,396-731,564c-196,97-348,156-660,254
		c-219,69-384,114-980,267c-388,100-549,152-700,228c-126,63-190,105-262,175c-76,73-114,131-143,217c-32,93-25,246,15,340
		c94,225,339,395,665,463c145,30,522,32,675,3c361-67,555-231,794-676c105-194,194-324,280-411c119-119,217-154,426-153
		c97,1,134,5,190,23c142,47,249,124,340,245c108,145,146,256,148,431c1,133-11,213-54,357c-124,409-500,811-974,1041
		c-411,200-844,289-1385,285C57570,7977,57426,7975,57390,7973z"/>
	<path d="M39020,6177c-193-53-328-171-416-363l-34-75V4057V2375l25-100c25-104,51-179,87-249c55-109,199-340,259-417
		c210-267,514-436,909-505c130-23,554-27,690-6c400,61,749,223,985,457c96,95,150,177,190,288l22,59l6-123c16-302,125-504,338-629
		c83-50,161-71,285-77c350-18,599,182,675,542c19,93,19,136,16,2038l-2,1942l-23,82c-69,259-224,427-457,499c-87,26-324,26-415,0
		c-237-69-409-260-463-516c-8-41-19-88-22-105c-4-16-11-534-15-1150c-8-1171-10-1229-55-1464c-21-108-41-159-101-261
		c-104-176-291-335-489-416c-217-89-510-87-684,6c-187,100-303,301-356,615c-35,211-38,309-45,1505c-6,1172-7,1197-27,1275
		c-56,210-165,358-335,454c-95,53-176,72-328,77C39121,6200,39095,6197,39020,6177z"/>
	<path d="M44755,6193c-66-10-163-46-225-83c-156-92-252-258-302-525c-21-108-21-139-25-1855c-4-1810-2-1969,36-2125
		c61-253,221-433,450-508c55-18,90-22,211-22c124,0,156,3,219,23c235,74,397,253,464,512c18,70,20,132,27,870c4,437,11,869,14,960
		c24,590,94,957,234,1225c48,91,166,212,242,248c181,84,396,77,723-22c281-86,326-93,451-66c204,43,387,216,447,423
		c24,84,26,232,4,316c-37,142-139,274-284,371c-151,100-412,202-621,242c-136,26-441,25-560-1c-341-76-588-310-676-641l-21-80l-7,75
		c-26,268-145,495-309,589c-95,54-174,73-327,76C44846,6197,44772,6196,44755,6193z"/>
</g>
<g transform="translate(0.000000,849.000000) scale(0.100000,-0.100000)">
	<path d="M22510,7987.9c-611-54-1198-276-1652-623c-687-527-1098-1296-1219-2282c-21-168-24-234-24-570c0-400,8-508,56-790
		c96-554,320-1100,593-1449c35-45,76-92,91-106s64-70,108-125c284-350,537-553,892-712c332-148,672-228,1129-264
		c219-17,669-7,866,20c594,81,1130,326,1521,695c292,277,515,606,644,954c54,145,55,153,55,519v342l-36,61c-46,78-153,185-235,233
		c-35,21-100,49-144,63c-68,22-98,26-205,27c-176,0-310-41-406-125c-38-33-177-237-195-287c-61-160-206-478-260-568
		c-219-369-523-589-939-680c-116-25-142-27-365-27c-213-1-253,2-355,22c-714,144-1145,697-1262,1617c-26,207-36,689-19,902
		c55,670,242,1153,581,1493c241,242,489,368,840,426c152,24,450,15,605-20c346-77,597-247,842-571c54-71,138-208,271-440
		c112-196,238-337,346-390c185-90,467-85,632,11c110,63,214,174,273,291l31,62v275v274l-36,104c-169,485-571,934-1119,1245
		c-365,208-659,307-1105,374C23158,7991.9,22682,8002.9,22510,7987.9z"/>
	<path d="M31921,7987.9c-270-57-449-244-515-539c-9-41-21-131-26-200c-12-162-12-5275-1-5438c5-67,17-157,27-200
		c58-261,221-452,449-525c95-31,325-33,425-4c240,69,412,261,476,531c18,78,19,163,19,2915s-1,2837-19,2915c-64,269-229,456-464,527
		C32216,7992.9,31995,8002.9,31921,7987.9z"/>
	<path d="M53085,7990.1c-133-32-230-80-315-160c-111-102-194-260-223-422c-9-49-19-102-23-119c-4-16-10-948-14-2070
		c-6-2024-6-2041-27-2155c-76-408-235-640-500-731c-75-26-108-31-230-36c-264-11-418,44-557,199c-110,123-166,268-280,723
		c-79,317-138,450-252,574c-109,117-249,171-449,171c-220,0-388-63-520-196c-142-141-196-296-196-555c0-458,161-972,429-1371
		c281-418,710-661,1325-751c134-19,192-22,482-21c325,1,333,1,515,33c712,125,1225,482,1504,1050c121,246,195,492,230,761
		s37,435,34,2445l-4,1980l-21,80c-80,295-240,476-493,554C53404,8002.1,53178,8012.1,53085,7990.1z"/>
	<path d="M57420,7960.9c-125-6-396-44-555-79c-899-195-1480-703-1646-1440c-34-149-34-150-33-404c1-247,2-259,32-396
		c77-347,235-620,505-868c231-212,521-371,957-524c227-80,413-133,850-242c693-173,893-240,1075-363c235-159,335-337,335-597
		c0-210-63-361-215-515c-156-158-370-267-630-321c-150-32-473-44-631-25c-234,29-421,101-573,221c-175,138-284,306-450,689
		c-39,90-92,199-118,243c-52,87-145,196-207,244c-116,89-265,131-426,121c-184-12-314-70-440-196c-160-161-215-332-190-596
		c27-295,148-596,357-885c360-501,866-808,1540-934c283-53,381-61,783-60c354,0,386,2,575,28c758,106,1361,421,1723,900
		c115,152,175,252,237,395c127,292,171,539,162,901c-11,440-111,749-341,1055c-168,224-392,396-731,564c-196,97-348,156-660,254
		c-219,69-384,114-980,267c-388,100-549,152-700,228c-126,63-190,105-262,175c-76,73-114,131-143,217c-32,93-25,246,15,340
		c94,225,339,395,665,463c145,30,522,32,675,3c361-67,555-231,794-676c105-194,194-324,280-411c119-119,217-154,426-153
		c97,1,134,5,190,23c142,47,249,124,340,245c108,145,146,256,148,431c1,133-11,213-54,357c-124,409-500,811-974,1041
		c-411,200-844,289-1385,285C57600,7964.9,57456,7962.9,57420,7960.9z"/>
	<path d="M39050,6164.9c-193-53-328-171-416-363l-34-75v-1682v-1682l25-100c25-104,51-179,87-249c55-109,199-340,259-417
		c210-267,514-436,909-505c130-23,554-27,690-6c400,61,749,223,985,457c96,95,150,177,190,288l22,59l6-123c16-302,125-504,338-629
		c83-50,161-71,285-77c350-18,599,182,675,542c19,93,19,136,16,2038l-2,1942l-23,82c-69,259-224,427-457,499c-87,26-324,26-415,0
		c-237-69-409-260-463-516c-8-41-19-88-22-105c-4-16-11-534-15-1150c-8-1171-10-1229-55-1464c-21-108-41-159-101-261
		c-104-176-291-335-489-416c-217-89-510-87-684,6c-187,100-303,301-356,615c-35,211-38,309-45,1505c-6,1172-7,1197-27,1275
		c-56,210-165,358-335,454c-95,53-176,72-328,77C39151,6187.9,39125,6184.9,39050,6164.9z"/>
	<path d="M44785,6180.9c-66-10-163-46-225-83c-156-92-252-258-302-525c-21-108-21-139-25-1855c-4-1810-2-1969,36-2125
		c61-253,221-433,450-508c55-18,90-22,211-22c124,0,156,3,219,23c235,74,397,253,464,512c18,70,20,132,27,870c4,437,11,869,14,960
		c24,590,94,957,234,1225c48,91,166,212,242,248c181,84,396,77,723-22c281-86,326-93,451-66c204,43,387,216,447,423
		c24,84,26,232,4,316c-37,142-139,274-284,371c-151,100-412,202-621,242c-136,26-441,25-560-1c-341-76-588-310-676-641l-21-80l-7,75
		c-26,268-145,495-309,589c-95,54-174,73-327,76C44876,6184.9,44802,6183.9,44785,6180.9z"/>
</g>
<path class="st0" d="M2768.4,711.7c-44.4-11.9-79.5-32.2-112.1-64.7l176.8-176.8L2768.4,711.7z">
<animate  fill="remove" dur="3s" attributeName="opacity" begin="0s" repeatCount="indefinite" restart="always" calcMode="linear" additive="replace" accumulate="none" values="1;1;0" keyTimes="0;0.33;1">
		</animate>
</path>
<path class="st1" d="M2897.8,711.7c-44.4,11.9-85,11.9-129.4,0l64.7-241.5L2897.8,711.7z">
<animate  fill="remove" dur="3s" attributeName="opacity" begin="0.25s" repeatCount="indefinite" restart="always" calcMode="linear" additive="replace" accumulate="none" values="1;1;0" keyTimes="0;0.33;1">
		</animate>
</path>
<path class="st2" d="M3009.9,647c-32.5,32.5-67.6,52.8-112.1,64.7l-64.7-241.5L3009.9,647z">
<animate  fill="remove" dur="3s" attributeName="opacity" begin="0.5s" repeatCount="indefinite" restart="always" calcMode="linear" additive="replace" accumulate="none" values="1;1;0" keyTimes="0;0.33;1">
		</animate>
</path>
<path class="st3" d="M3074.6,535c-11.9,44.4-32.2,79.5-64.7,112.1l-176.8-176.8L3074.6,535">
<animate  fill="remove" dur="3s" attributeName="opacity" begin="0.75" repeatCount="indefinite" restart="always" calcMode="linear" additive="replace" accumulate="none" values="1;1;0" keyTimes="0;0.33;1">
		</animate>
</path>
<path class="st4" d="M3074.6,535l-241.5-64.7l241.5-64.7">
<animate  fill="remove" dur="3s" attributeName="opacity" begin="1" repeatCount="indefinite" restart="always" calcMode="linear" additive="replace" accumulate="none" values="1;1;0" keyTimes="0;0.33;1">
		</animate>
</path>
<path class="st5" d="M3074.6,405.6l-241.5,64.7l176.8-176.8C3042.4,326,3062.7,361.1,3074.6,405.6">
<animate  fill="remove" dur="3s" attributeName="opacity" begin="1.25s" repeatCount="indefinite" restart="always" calcMode="linear" additive="replace" accumulate="none" values="1;1;0" keyTimes="0;0.33;1">
		</animate>
</path>
<path class="st6" d="M2897.8,228.8c44.4,11.9,79.5,32.2,112.1,64.7l-176.8,176.8L2897.8,228.8z">
<animate  fill="remove" dur="3s" attributeName="opacity" begin="1.5s" repeatCount="indefinite" restart="always" calcMode="linear" additive="replace" accumulate="none" values="1;1;0" keyTimes="0;0.33;1">
		</animate>
</path>
<path class="st7" d="M2768.4,228.8c44.4-11.9,85-11.9,129.4,0l-64.7,241.5L2768.4,228.8z">
<animate  fill="remove" dur="3s" attributeName="opacity" begin="1.75s" repeatCount="indefinite" restart="always" calcMode="linear" additive="replace" accumulate="none" values="1;1;0" keyTimes="0;0.33;1">
		</animate>
</path>
<path class="st8" d="M2591.6,535l241.5-64.7L2656.4,647C2623.8,614.5,2603.6,579.4,2591.6,535">
<animate  fill="remove" dur="3s" attributeName="opacity" begin="2s" repeatCount="indefinite" restart="always" calcMode="linear" additive="replace" accumulate="none" values="1;1;0" keyTimes="0;0.33;1">
		</animate>
</path>
<path class="st9" d="M2591.6,405.6l241.5,64.7L2591.6,535">
<animate  fill="remove" dur="3s" attributeName="opacity" begin="2.25s" repeatCount="indefinite" restart="always" calcMode="linear" additive="replace" accumulate="none" values="1;1;0" keyTimes="0;0.33;1">
		</animate>
</path>
<path class="st10" d="M2656.4,293.5c32.5-32.5,67.6-52.8,112.1-64.7l64.7,241.5L2656.4,293.5z">
<animate  fill="remove" dur="3s" attributeName="opacity" begin="2.5s" repeatCount="indefinite" restart="always" calcMode="linear" additive="replace" accumulate="none" values="1;1;0" keyTimes="0;0.33;1">
		</animate>
</path>
<path class="st11" d="M2591.6,405.6c11.9-44.4,32.2-79.5,64.7-112.1l176.8,176.8L2591.6,405.6">
<animate  fill="remove" dur="3s" attributeName="opacity" begin="2.75s" repeatCount="indefinite" restart="always" calcMode="linear" additive="replace" accumulate="none" values="1;1;0" keyTimes="0;0.33;1">
		</animate>
</path>
<path class="st12" d="M2986.9,470.3c0,84.9-68.9,153.8-153.8,153.8s-153.8-68.9-153.8-153.8s68.9-153.8,153.8-153.8
	S2986.9,385.4,2986.9,470.3z"/>
<path class="st0" d="M3482.4,712c-44.4-11.9-79.5-32.2-112.1-64.7l176.8-176.8L3482.4,712z">
<animate  fill="remove" dur="3s" attributeName="opacity" begin="0s" repeatCount="indefinite" restart="always" calcMode="linear" additive="replace" accumulate="none" values="1;1;0" keyTimes="0;0.33;1">
		</animate>
</path>
<path class="st1" d="M3611.8,712c-44.4,11.9-85,11.9-129.4,0l64.7-241.5L3611.8,712z">
<animate  fill="remove" dur="3s" attributeName="opacity" begin="0.25s" repeatCount="indefinite" restart="always" calcMode="linear" additive="replace" accumulate="none" values="1;1;0" keyTimes="0;0.33;1">
		</animate>
</path>
<path class="st2" d="M3723.9,647.3c-32.5,32.5-67.6,52.8-112.1,64.7l-64.7-241.5L3723.9,647.3z">
<animate  fill="remove" dur="3s" attributeName="opacity" begin="0.5s" repeatCount="indefinite" restart="always" calcMode="linear" additive="replace" accumulate="none" values="1;1;0" keyTimes="0;0.33;1">
		</animate>
</path>
<path class="st3" d="M3788.6,535.2c-11.9,44.4-32.2,79.5-64.7,112.1l-176.8-176.8L3788.6,535.2">
<animate  fill="remove" dur="3s" attributeName="opacity" begin="0.75" repeatCount="indefinite" restart="always" calcMode="linear" additive="replace" accumulate="none" values="1;1;0" keyTimes="0;0.33;1">
		</animate>
</path>
<path class="st4" d="M3788.6,535.2l-241.5-64.7l241.5-64.7">
<animate  fill="remove" dur="3s" attributeName="opacity" begin="1" repeatCount="indefinite" restart="always" calcMode="linear" additive="replace" accumulate="none" values="1;1;0" keyTimes="0;0.33;1">
		</animate>
</path>
<path class="st5" d="M3788.6,405.8l-241.5,64.7l176.8-176.8C3756.4,326.3,3776.7,361.4,3788.6,405.8">
<animate  fill="remove" dur="3s" attributeName="opacity" begin="1.25s" repeatCount="indefinite" restart="always" calcMode="linear" additive="replace" accumulate="none" values="1;1;0" keyTimes="0;0.33;1">
		</animate>
</path>
<path class="st6" d="M3611.8,229c44.4,11.9,79.5,32.2,112.1,64.7l-176.8,176.8L3611.8,229z">
<animate  fill="remove" dur="3s" attributeName="opacity" begin="1.5s" repeatCount="indefinite" restart="always" calcMode="linear" additive="replace" accumulate="none" values="1;1;0" keyTimes="0;0.33;1">
		</animate>
</path>
<path class="st7" d="M3482.4,229c44.4-11.9,85-11.9,129.4,0l-64.7,241.5L3482.4,229z">
<animate  fill="remove" dur="3s" attributeName="opacity" begin="1.75s" repeatCount="indefinite" restart="always" calcMode="linear" additive="replace" accumulate="none" values="1;1;0" keyTimes="0;0.33;1">
		</animate>
</path>
<path class="st8" d="M3305.6,535.2l241.5-64.7l-176.8,176.8C3337.8,614.8,3317.6,579.7,3305.6,535.2">
<animate  fill="remove" dur="3s" attributeName="opacity" begin="2s" repeatCount="indefinite" restart="always" calcMode="linear" additive="replace" accumulate="none" values="1;1;0" keyTimes="0;0.33;1">
		</animate>
</path>
<path class="st9" d="M3305.6,405.8l241.5,64.7l-241.5,64.7">
<animate  fill="remove" dur="3s" attributeName="opacity" begin="2.25s" repeatCount="indefinite" restart="always" calcMode="linear" additive="replace" accumulate="none" values="1;1;0" keyTimes="0;0.33;1">
		</animate>
</path>
<path class="st10" d="M3370.4,293.7c32.5-32.5,67.6-52.8,112.1-64.7l64.7,241.5L3370.4,293.7z">
<animate  fill="remove" dur="3s" attributeName="opacity" begin="2.5s" repeatCount="indefinite" restart="always" calcMode="linear" additive="replace" accumulate="none" values="1;1;0" keyTimes="0;0.33;1">
		</animate>
</path>
<path class="st11" d="M3305.6,405.8c11.9-44.4,32.2-79.5,64.7-112.1l176.8,176.8L3305.6,405.8">
<animate  fill="remove" dur="3s" attributeName="opacity" begin="2.75s" repeatCount="indefinite" restart="always" calcMode="linear" additive="replace" accumulate="none" values="1;1;0" keyTimes="0;0.33;1">
		</animate>
</path>
<path class="st12" d="M3700.9,470.4c0.1,85-68.9,154-153.9,153.9c-84.5-0.1-153.6-69.2-153.7-153.7c-0.1-85,68.9-154,153.9-153.9
	C3631.7,316.8,3700.9,385.9,3700.9,470.4z"/>
<path class="st0" d="M4770.5,728.6c-10-2.7-17.9-7.2-25.2-14.6l39.8-39.8L4770.5,728.6z">
<animate  fill="remove" dur="3s" attributeName="opacity" begin="0s" repeatCount="indefinite" restart="always" calcMode="linear" additive="replace" accumulate="none" values="1;1;0" keyTimes="0;0.33;1">
		</animate>
</path>
<path class="st1" d="M4799.6,728.6c-10,2.7-19.1,2.7-29.1,0l14.6-54.3L4799.6,728.6z">
<animate  fill="remove" dur="3s" attributeName="opacity" begin="0.25s" repeatCount="indefinite" restart="always" calcMode="linear" additive="replace" accumulate="none" values="1;1;0" keyTimes="0;0.33;1">
		</animate>
</path>
<path class="st2" d="M4824.8,714.1c-7.3,7.3-15.2,11.9-25.2,14.6l-14.6-54.3L4824.8,714.1z">
<animate  fill="remove" dur="3s" attributeName="opacity" begin="0.5s" repeatCount="indefinite" restart="always" calcMode="linear" additive="replace" accumulate="none" values="1;1;0" keyTimes="0;0.33;1">
		</animate>
</path>
<path class="st3" d="M4839.4,688.9c-2.7,10-7.2,17.9-14.6,25.2l-39.8-39.8L4839.4,688.9z">
<animate  fill="remove" dur="3s" attributeName="opacity" begin="0.75" repeatCount="indefinite" restart="always" calcMode="linear" additive="replace" accumulate="none" values="1;1;0" keyTimes="0;0.33;1">
		</animate>
</path>
<path class="st4" d="M4839.4,659.7c2.7,10,2.7,19.1,0,29.1l-54.3-14.6L4839.4,659.7z">
<animate  fill="remove" dur="3s" attributeName="opacity" begin="1" repeatCount="indefinite" restart="always" calcMode="linear" additive="replace" accumulate="none" values="1;1;0" keyTimes="0;0.33;1">
		</animate>
</path>
<path class="st5" d="M4824.8,634.5c7.3,7.3,11.9,15.2,14.6,25.2l-54.3,14.6L4824.8,634.5z">
<animate  fill="remove" dur="3s" attributeName="opacity" begin="1.25s" repeatCount="indefinite" restart="always" calcMode="linear" additive="replace" accumulate="none" values="1;1;0" keyTimes="0;0.33;1">
		</animate>
</path>
<path class="st6" d="M4799.6,620c10,2.7,17.9,7.2,25.2,14.6l-39.8,39.8L4799.6,620z">
<animate  fill="remove" dur="3s" attributeName="opacity" begin="1.5s" repeatCount="indefinite" restart="always" calcMode="linear" additive="replace" accumulate="none" values="1;1;0" keyTimes="0;0.33;1">
		</animate>
</path>
<path class="st7" d="M4770.5,620c10-2.7,19.1-2.7,29.1,0l-14.6,54.3L4770.5,620z">
<animate  fill="remove" dur="3s" attributeName="opacity" begin="1.75s" repeatCount="indefinite" restart="always" calcMode="linear" additive="replace" accumulate="none" values="1;1;0" keyTimes="0;0.33;1">
		</animate>
</path>
<path class="st8" d="M4745.3,714.1c-7.3-7.3-11.9-15.2-14.6-25.2l54.3-14.6L4745.3,714.1z">
<animate  fill="remove" dur="3s" attributeName="opacity" begin="2s" repeatCount="indefinite" restart="always" calcMode="linear" additive="replace" accumulate="none" values="1;1;0" keyTimes="0;0.33;1">
		</animate>
</path>
<path class="st9" d="M4730.7,688.9c-2.7-10-2.7-19.1,0-29.1l54.3,14.6L4730.7,688.9z">
<animate  fill="remove" dur="3s" attributeName="opacity" begin="2.25s" repeatCount="indefinite" restart="always" calcMode="linear" additive="replace" accumulate="none" values="1;1;0" keyTimes="0;0.33;1">
		</animate>
</path>
<path class="st10" d="M4745.3,634.5c7.3-7.3,15.2-11.9,25.2-14.6l14.6,54.3L4745.3,634.5z">
<animate  fill="remove" dur="3s" attributeName="opacity" begin="2.5s" repeatCount="indefinite" restart="always" calcMode="linear" additive="replace" accumulate="none" values="1;1;0" keyTimes="0;0.33;1">
		</animate>
</path>
<path class="st11" d="M4730.7,659.7c2.7-10,7.2-17.9,14.6-25.2l39.8,39.8L4730.7,659.7z">
<animate  fill="remove" dur="3s" attributeName="opacity" begin="2.75s" repeatCount="indefinite" restart="always" calcMode="linear" additive="replace" accumulate="none" values="1;1;0" keyTimes="0;0.33;1">
		</animate>
</path>
</svg>
